<svg xmlns="http://www.w3.org/2000/svg" xmlns:xlink="http://www.w3.org/1999/xlink" id="Calque_1" x="0px" y="0px" viewBox="0 0 887.4 458.2" style="enable-background:new 0 0 887.4 458.2;" xml:space="preserve">
<style type="text/css">
	.st0{fill:#D8E5F6;}
	.st1{fill:none;stroke:#FFFFFF;stroke-width:0.656;stroke-miterlimit:10;}
	.st2{fill:#EEC216;}
	.st3{fill:none;stroke:#FFFFFF;stroke-miterlimit:10;}
	.st4{fill:#F7E098;}
	.st5{fill:none;stroke:#FFFFFF;stroke-width:0.656;stroke-linecap:round;stroke-linejoin:round;}
	.st6{fill:#1F4480;}
	.st7{fill:#EEC21B;}
	.st8{fill:none;stroke:#FFFFFF;stroke-width:2.2777;stroke-miterlimit:10;}
	.st9{fill:#85C4EF;}
	.st10{fill:none;stroke:#1F4480;stroke-width:2;stroke-miterlimit:10;}
</style>
<polygon class="st0" points="392,9.8 382.3,12.9 378.1,16.5 378.1,29.6 380.1,32.2 378.1,30.9 377.6,35.2 377.9,37.9 379.7,39.1   377,40.2 376.7,42.3 378.9,46.3 376.8,45.3 372.2,51.7 372,51.9 364.2,57.5 348,61.4 337.7,67 333.5,76.2 334.7,77.8 341.2,79.3   341.3,79.3 340.2,79.7 340,79.8 335.1,80.9 331.5,84 324.6,86 318.4,83.4 309.3,82.4 302.4,79.9 298.5,81.7 293.9,74 295.6,68.3   294.9,66.3 290.2,65.8 288.3,67.1 283.6,67.4 275.3,64.1 275.2,66 277.6,67.4 277.9,71 276.6,72.4 278.5,79.9 284.6,86.5   283.6,93.8 285.1,95.9 284.7,100.2 283,104.4 286.1,111.2 288,112.1 289.8,110.9 289.1,113.1 283.9,113.7 283.7,113.7 275.5,113.7   275.8,109.6 273.4,110.1 270.5,112.9 272.1,116.8 270.7,115.6 269.4,112.4 267.3,112.4 267.3,113.7 264.3,114 263.6,111.8   261.4,112.8 260.6,110.9 258,111.1 250.2,117.6 249.6,114.9 246.7,113 246.6,110.8 243.3,105 241.2,104.6 241.6,102.5 239.4,102.8   238.2,104.9 239.1,100.1 235.8,102.5 235.3,99.9 228.9,102.5 227.8,100.8 224.6,103.4 224.4,107.9 222,108.3 222,108.3 218.4,106.1   216.4,106.5 215.9,109 214.3,107.1 213.2,109.5 213,104.7 202.6,107.8 201.5,105.9 194.1,109.9 196,110.9 189.9,110.3 188.5,112   187.5,118.5 188.8,120.2 190.8,119.4 192.7,120.3 201.6,117.6 198.9,118.9 198.5,121.4 202.8,120.3 202.5,122.4 204.7,123.3   202.4,123.8 207,125.7 202.6,124.7 201.7,122.9 198.9,123.6 194.7,122.8 193.5,121.1 192.4,123.7 194.1,127.5 195.4,125.5   197.5,125.7 201.4,128 202,130.3 200.9,132.1 199.1,131.2 189.9,132.1 188.8,133.9 195.7,136.5 198.4,141 197.7,145 203,145.4   205.6,142.5 205.7,142.1 207.8,143.6 211.1,142.4 214.5,146.7 216.6,146.2 216.6,144.1 216.9,146.2 218.8,145.5 218.3,147.5   220.4,148.1 223.1,147 223.3,144.7 223.8,150.3 225.7,151.5 227.6,150.5 227.3,146.2 227.7,148.4 229.9,148.9 228.3,150.4   229.4,152.3 232.1,153.4 234,152.6 232.2,153.5 232.4,155.5 234,157.5 233.4,160.2 235,161.9 234,159.8 236.1,158.1 238.4,157.5   240.1,158.9 239.3,154.6 241.5,158.2 242.6,156.3 245.3,156.7 246.8,158.5 245.4,160.3 240.8,159.7 244.3,162.5 253.3,161.7   255.3,162.8 253.1,163 254.2,164.9 251,168 252.7,172.5 257.1,173.2 258.6,174.7 262.2,172 267.5,171.5 262.5,173.4 262.1,178.2   259.9,179.2 264.2,180.7 267.7,184.4 262,190.4 262.3,193.6 269.9,202.5 271.4,207.7 277.3,212.5 280.8,213.3 281.9,215.9   286.2,216.8 289.7,219.5 290.2,217.5 292.3,217.9 288.9,224.8 291,225.5 294.1,231.3 292.1,231.7 293.2,235.5 291,239.7   287.6,242.1 288.6,245.1 294.2,248.7 301.8,256.9 303.3,262.3 303.8,264.3 302.2,266.7 300.3,261 292.6,253.4 291.9,251.4   289.8,255.6 285.3,292 288.2,286.3 291.4,290.1 291.5,292.2 287,291.5 284.6,296.5 284.6,300 276.7,336.4 273.9,341.5 270.5,346.1   265.9,349.5 270.2,351.4 270.5,353.7 272.2,352.2 277,353.2 278,355.2 276.6,359.6 274.7,361.2 275.6,363.3 278.5,363.9   278.8,361.3 281,360.6 281.1,363.1 285.4,365.4 292.4,368.1 297,367.8 298.9,371.3 304.6,375.9 306.2,374.8 308,375.8 312.3,373.6   312.3,373.7 320.5,380.9 329.4,379.6 331.2,381.2 338.4,381 342.9,381.3 344.5,379.7 344.3,375 346.1,374 351,375.7 358.2,377.6   361.7,380.7 366.4,380.4 370.5,385.9 371.3,383.8 373.7,383.7 381.4,387.3 380,390.9 386.4,392.8 388.1,396.9 390.4,397.1   393.7,394.2 396,394 402.9,395.5 406.2,398.2 410.7,397.8 410.7,395.7 416.6,392.6 421.2,391.8 427.4,393.5 423.2,388.3   422.9,375.6 423.3,368.3 427.4,360.6 429.3,358.6 429.3,358.5 433.3,355.6 438.2,355.6 443,350.3 451,344.6 457.1,342.8   459.2,346.5 461.4,347 461.6,347 471.9,347.3 473.4,349.1 473,351.1 475.7,351.7 482.8,350.9 481.2,349.2 482.1,347.4 484.1,347.6   487.4,351.6 497,350.5 499.9,356.9 507,358.5 509,358 513.5,360.6 513.3,362.7 519.8,360.8 524.1,362 524.9,364.1 526.4,360   531.8,360.9 531.9,358.8 535.9,358 537.9,356.1 540.7,356.4 542.3,352.5 539.7,351.3 544.1,345.4 548.1,344.9 549.5,342.3   551.3,339.3 555.4,337.3 556.2,334.3 566.7,328.6 567,323.4 571.6,317 573.1,313.8 570.2,310 561.5,313.1 554.8,309.5 550.3,308.7   545.7,303.1 547.1,299.6 544.2,295.7 545.8,294.3 546.8,290.1 546.8,289.9 547,289.8 548.3,288.2 550.8,288.3 548.1,281.5   543.7,281.3 539.9,278.9 539.3,274.1 537.3,274.1 535.6,270.2 549.7,264.2 551.1,261.6 550.3,259.6 552.3,255.9 547,252.2   545.4,248.2 545.9,245.9 541.8,244.2 539.7,242.3 539.3,240.1 539.3,240 539.5,239.9 545.5,234 546.2,231.7 543.7,228.5 538,223.1   539.8,218.6 537.1,214.7 537.4,212.5 535,212 528.8,212.5 525.2,215.5 522.7,214.5 520.7,218.7 522.3,221 517.3,224.8 512.1,225.6   512.6,221.9 516.7,219.3 517.5,214.2 515.1,212.8 514.9,212.7 516.9,206.1 516.9,206 517.5,203.9 526,196 525.5,189 531.6,184.7   540.2,174.2 540.1,172.1 541.7,170.6 538.6,168 539.3,165.8 539.4,165.7 542,162.7 542.3,162.7 544.9,162.4 547,162.8 546.4,165   551.9,165 553.9,164.3 554.2,162.1 556.4,161.9 556.5,159.7 558.1,158.2 556,152.6 558,141.4 556.6,133.9 560.9,123.8 562,112.4   569.6,102.5 572.4,94.7 566.2,92.5 555.5,92.1 549.5,86.7 544.9,89.7 539.9,88.8 538,89.7 536.4,86.9 534.2,85.9 532.1,87   531.9,89.1 529.9,88.6 524.1,82 522.8,77.8 520.7,76.2 512.7,74.3 509.4,76.9 507.4,77 503.4,75.2 501,73.2 496.1,73.2 495.1,75.1   491.1,75.7 488.5,70.4 486.3,70.6 486.3,68.3 481.9,67.3 477,62.9 472.7,63.1 473.3,58.3 471.3,54.2 471.3,51.2 473.2,47.5   471.2,46.3 468.2,49.5 467,54.1 460.7,57 456.7,55.7 454.7,56.2 454.5,56.2 451.8,55.4 454.2,50.8 452,46.9 453.5,42.3 451.4,42.7   448.5,39.1 444.1,39.9 440.1,38.9 438.5,40.4 437,33.8 433,32.9 432.2,30.9 430.1,32.5 427.8,31.7 425.5,25.5 425.9,23.4 423,20.1   418.8,20.5 414.8,23.3 412.6,22.4 410.5,18.6 408.1,18.5 407.2,16.6 408,12.4 406.1,8 404.1,6.9 "></polygon>
<g>
	<polyline class="st1" points="516.9,206.1 514.9,212.7 515.1,212.8 517.5,214.2 516.7,219.3 512.6,221.9 512.1,225.6 517.3,224.8    522.3,221 520.7,218.7 522.7,214.5 525.2,215.5 528.8,212.5 535,212 537.4,212.5 537.1,214.7 539.8,218.6 538,223.1 543.7,228.5    546.2,231.7 545.5,234 539.5,239.9 539.3,240 539.3,240.1 539.7,242.3 541.8,244.2 545.9,245.9 545.4,248.2 547,252.2 552.3,255.9    550.2,259.6 551.1,261.6 549.7,264.2 535.6,270.2 537.3,274.1 539.3,274.1 539.9,278.9 543.7,281.3 548.1,281.5 550.8,288.3    548.3,288.2 547,289.8 546.8,289.9 546.8,290.1 545.8,294.3 544.2,295.6 547,299.6 545.7,303.1 550.2,308.7 554.8,309.5    561.5,313.1 570.2,310 573.1,313.8 571.6,317 567,323.4 566.7,328.6 556.2,334.3 555.4,337.3 551.3,339.3 549.5,342.3 548.1,344.9    544.1,345.4 539.7,351.3 542.3,352.5 540.7,356.4 537.9,356.1 535.9,358 531.9,358.8 531.8,360.9 526.4,360 524.9,364.1 524.1,362    519.8,360.8 513.3,362.7 513.5,360.6 508.9,358 507,358.5 499.9,356.9 497,350.5 487.4,351.6 484.1,347.6 482.1,347.4 481.2,349.2    482.8,350.9 475.7,351.7 473,351.1 473.4,349.1 471.9,347.3 461.6,347 461.4,347 459.2,346.5 457.1,342.8 451,344.6 443,350.3    438.2,355.6 433.3,355.6 429.3,358.5 429.3,358.6 427.4,360.6 423.3,368.3 422.9,375.6 423.2,388.3 427.4,393.5 421.2,391.8    416.6,392.6 410.7,395.7 410.7,397.8 406.2,398.2 402.9,395.5 396,394 393.7,394.2 390.4,397.1 388.1,396.9 386.4,392.8 380,390.9    381.4,387.3 373.7,383.7 371.3,383.8 370.5,385.9 366.4,380.4 361.7,380.7 358.2,377.6 351,375.7 346.1,374 344.3,375 344.5,379.7    342.9,381.3 338.4,381 331.2,381.2 329.4,379.6 320.5,380.9 312.3,373.7 312.3,373.6 308,375.8 306.2,374.8 304.6,375.9    298.9,371.3 297,367.8 292.4,368.1 285.4,365.4 281.1,363.1 281,360.6 278.8,361.3 278.5,363.9 275.6,363.3 274.7,361.2    276.6,359.6 278,355.2 277,353.2 272.2,352.2 270.5,353.7 270.2,351.4 265.9,349.5 270.5,346.1 273.9,341.5 276.7,336.4 284.6,300    284.6,296.5 287,291.5 291.5,292.2 291.4,290.1 288.2,286.3 285.3,292 289.8,255.6 291.9,251.4 292.6,253.4 300.3,261 302.2,266.7    303.8,264.3 303.3,262.3 301.8,256.9 294.2,248.7 288.6,245.1 287.6,242.1 291,239.7 293.2,235.5 292,231.7 294.1,231.3 291,225.5    288.9,224.8 292.3,217.9 290.2,217.5 289.7,219.5 286.2,216.8 281.9,215.9 280.8,213.3 277.3,212.5 271.4,207.7 269.9,202.5    262.3,193.6 262,190.4 267.7,184.4 264.2,180.7 259.9,179.2 262.1,178.2 262.5,173.4 267.5,171.5 262.2,172 258.6,174.7    257.1,173.2 252.7,172.5 251,168 254.2,164.9 253.1,163 255.3,162.8 253.3,161.7 244.3,162.5 240.8,159.7 245.4,160.3 246.8,158.5    245.3,156.7 242.6,156.3 241.5,158.2 239.3,154.6 240.1,158.9 238.4,157.5 236.1,158.1 234,159.8 235,161.9 233.4,160.2 234,157.5    232.4,155.5 232.2,153.5 234,152.6 232.1,153.4 229.4,152.3 228.3,150.4 229.9,148.9 227.7,148.4 227.3,146.2 227.6,150.5    225.7,151.5 223.8,150.3 223.3,144.7 223.1,147 220.4,148.1 218.3,147.5 218.8,145.5 216.9,146.2 216.6,144.1 216.6,146.2    214.5,146.7 211.1,142.4 207.8,143.6 205.7,142.1 205.6,142.5 203,145.4 197.7,145 198.4,141 195.7,136.5 188.8,133.9 189.9,132.1    199.1,131.2 200.9,132.1 202,130.3 201.4,128 197.5,125.7 195.4,125.5 194.1,127.5 192.4,123.7 193.5,121.1 194.7,122.8    198.9,123.6 201.7,122.9 202.6,124.7 207,125.7 202.4,123.8 204.7,123.3 202.5,122.4 202.8,120.3 198.5,121.4 198.9,118.9    201.6,117.6 192.7,120.3 190.8,119.4 188.8,120.2 187.5,118.5 188.5,112 189.9,110.3 196,110.9 194.1,109.9 201.5,105.9    202.6,107.8 213,104.7 213.2,109.5 214.3,107.1 215.9,109 216.4,106.5 218.4,106.1 222,108.3 222,108.3 224.4,107.9 224.6,103.4    227.8,100.8 228.9,102.5 235.3,99.9 235.8,102.5 239.1,100.1 238.2,104.9 239.4,102.8 241.6,102.5 241.2,104.6 243.3,105    246.6,110.8 246.7,113 249.6,114.9 250.2,117.6 258,111.1 260.6,110.9 261.4,112.8 263.6,111.8 264.3,114 267.3,113.7 267.3,112.4    269.4,112.4 270.7,115.6 272.1,116.8 270.5,112.9 273.4,110.1 275.8,109.6 275.5,113.7 283.7,113.7 283.9,113.7 289.1,113.1    289.8,110.9 288,112.1 286.1,111.2 283,104.4 284.7,100.2 285.1,95.9 283.6,93.8 284.6,86.5 278.5,79.9 276.6,72.4 277.9,71    277.6,67.4 275.2,66 275.3,64.1 283.6,67.4 288.3,67.1 290.2,65.8 294.9,66.3 295.6,68.3 293.9,74 298.5,81.7 302.4,79.9    309.3,82.4 318.4,83.4 324.6,86 331.5,84 335.1,80.9 340,79.8 340.2,79.7 341.3,79.3 341.2,79.3 334.7,77.8 333.5,76.2 337.7,67    348,61.4 364.2,57.5 372,51.9 372.2,51.7 376.8,45.3 378.9,46.3 376.7,42.3 377,40.2 379.7,39.1 377.9,37.9 377.6,35.2 378.1,30.9    380.1,32.2 378.1,29.6 378.1,16.5 382.3,12.9 392,9.8 404.1,6.9 406.1,8 408,12.4 407.2,16.6 408.1,18.5 410.5,18.6 412.6,22.4    414.8,23.3 418.8,20.5 423,20.1 425.9,23.4 425.5,25.5 427.8,31.7 430.1,32.5 432.2,30.9 433,32.9 437,33.8 438.5,40.4 440.1,38.9    444.1,39.9 448.5,39.1 451.4,42.7 453.5,42.3 452,46.9 454.2,50.8 451.8,55.4 454.5,56.2 454.7,56.2 456.7,55.7 460.7,57 467,54.1    468.2,49.5 471.2,46.3 473.2,47.5 471.3,51.2 471.3,54.2 473.3,58.3 472.7,63.1 477,62.9 481.9,67.3 486.3,68.3 486.3,70.6    488.5,70.4 491.1,75.7 495.1,75.1 496.1,73.2 501,73.2 503.4,75.2 507.3,77 509.4,76.9 512.7,74.3 520.7,76.2 522.8,77.8 524.1,82    529.9,88.6 531.9,89.1 532.1,87 534.2,85.9 536.4,86.9 538,89.7 539.9,88.8 544.9,89.7 549.4,86.7 555.5,92.1 566.2,92.5    572.4,94.7 569.6,102.5 562,112.4 560.9,123.8 556.6,133.9 558,141.4 556,152.6 558.1,158.2 556.5,159.7 556.4,161.9 554.2,162.1    553.9,164.3 551.9,165 546.4,165 547,162.8 544.9,162.4 542.3,162.7 542,162.7 539.4,165.7 539.3,165.8 538.6,168 541.7,170.6    540.1,172.1 540.2,174.2 531.6,184.7 525.5,189 526,196 517.5,203.9 516.9,206  "></polyline>
	<path class="st2" d="M289.1,338.6l-7.3,1.4l-2.4,2.4l-9.3-4.2l-1.8,4.7l2,4.9l5.3,3.7l-0.5,7.1l-3.7-1.3l-15.1,4.5l-1.1,3.3   l-6.6,1.4l-1.1,3.7l-0.5,4.1l-6.8,0.4l-3,8.1l3.6,2.6l-3,3l-5-1.7l-3.8,6.1l1.8,3.2l11.9,6.7l-0.2,5.6l-1.2,0.4h-2.9l-5,5.9   l-6.2-2.9l-0.1-3.3l-11.2-1l-0.6-6.9l-3,2.6l-2.9-1.7l-10.4,4.7l-4-5.1l-6.9-0.8l0.1,4.4l-7.3-4.1h-3.2l-3,2.6l-0.2-3.7l-8.4,5.3   l-9.3-6l-8.4-17.1l-2.5-10.8l-10.8-9.2l-3.3-0.4l-0.2,3.5l-7.6-1.6l-1.8-6.8l-2.6-1.9l-1.3,1.2l-8,6.7l-2.1-2.6l-8.2,19l-3.1-6.2   l0.6-3.6l-2.9-1.8L93,362l-6.2-4.8l-5.7,5.1l-3.6,10.8L73,379l-7.6-1.9l-6.1,3.9l-3.9-6.1l2.2-6.8l-4.7-7.2l-1.2-6.6h0.1l3.9-2.3   l-1.8-3.9l3.7-1.4l0.2-4.1l2.7-2.3l-2.1-2.8l9.1-11.2l0.8-4.2l7.4,2.4L73.3,308l2.1-3l-1.4-6.6l-5.4-6.6l11.1-10.3l-2.6-8.1   l0.6-4.8l-4.4-10c-2.9-1.9-5.9-3.8-8.7-5.9l-1.3-4.7h-0.1l4.2-7.1l10.5-1.2l2-2.9l-2-6.5l2.6-2.2l10.2-3.5l5.6-4.5h4.9v0.1l6.8,7.5   l7.6,0.1l3.5-2l5.1,4.4l7.2-7.2l8,16.1l9.3,3.6l2,2.9l-0.6,6.6l-4.4,5.5v3.6l6.1,3.8l9.6-1.8l2.5,2.6l6.8-4.7l0.4-3.6l2.9-2.3   l2.5,2.2l2.7-2l3,1.9l1.9-2.7l6.8,9.1l7-25l6.9,1.8l6.5-1.4l5.9,3.8l5,9.3h3.6v3.6l3.6-0.1l4.8-5.3l3.9,1.9l0.5,3.3l4.7-0.2   l6.6-3.9l5.6-7.8l-0.2-0.1l0.2,0.1l4.1,2.4l-1.3,8.4l-6.8,4.2l-0.7,6.1l8.5-1.2l8.2-6.3l-2.7-3.7l3.3-6.9l4.1,1.7l6-5l10.2-0.7   l3.9,0.8l-0.5,3.5l4.4,6.5l-2.9,7.4l9.3,8.8l4.1,5.4l-1.2,3.7l-9.8,9.7l-0.2,0.1v0.2l0.6,3.6l3.5,3.2l6.7,2.8l-0.8,3.7l2.6,6.6   l8.7,6.1l-3.3,6.1l1.4,3.2l-2.4,4.3L289.1,338.6z"></path>
	<path class="st3" d="M289.1,338.6l-7.3,1.4l-2.4,2.4l-9.3-4.2l-1.8,4.7l2,4.9l5.3,3.7l-0.5,7.1l-3.7-1.3l-15.1,4.5l-1.1,3.3   l-6.6,1.4l-1.1,3.7l-0.5,4.1l-6.8,0.4l-3,8.1l3.6,2.6l-3,3l-5-1.7l-3.8,6.1l1.8,3.2l11.9,6.7l-0.2,5.6l-1.2,0.4h-2.9l-5,5.9   l-6.2-2.9l-0.1-3.3l-11.2-1l-0.6-6.9l-3,2.6l-2.9-1.7l-10.4,4.7l-4-5.1l-6.9-0.8l0.1,4.4l-7.3-4.1h-3.2l-3,2.6l-0.2-3.7l-8.4,5.3   l-9.3-6l-8.4-17.1l-2.5-10.8l-10.8-9.2l-3.3-0.4l-0.2,3.5l-7.6-1.6l-1.8-6.8l-2.6-1.9l-1.3,1.2l-8,6.7l-2.1-2.6l-8.2,19l-3.1-6.2   l0.6-3.6l-2.9-1.8L93,362l-6.2-4.8l-5.7,5.1l-3.6,10.8L73,379l-7.6-1.9l-6.1,3.9l-3.9-6.1l2.2-6.8l-4.7-7.2l-1.2-6.6h0.1l3.9-2.3   l-1.8-3.9l3.7-1.4l0.2-4.1l2.7-2.3l-2.1-2.8l9.1-11.2l0.8-4.2l7.4,2.4L73.3,308l2.1-3l-1.4-6.6l-5.4-6.6l11.1-10.3l-2.6-8.1   l0.6-4.8l-4.4-10c-2.9-1.9-5.9-3.8-8.7-5.9l-1.3-4.7h-0.1l4.2-7.1l10.5-1.2l2-2.9l-2-6.5l2.6-2.2l10.2-3.5l5.6-4.5h4.9v0.1l6.8,7.5   l7.6,0.1l3.5-2l5.1,4.4l7.2-7.2l8,16.1l9.3,3.6l2,2.9l-0.6,6.6l-4.4,5.5v3.6l6.1,3.8l9.6-1.8l2.5,2.6l6.8-4.7l0.4-3.6l2.9-2.3   l2.5,2.2l2.7-2l3,1.9l1.9-2.7l6.8,9.1l7-25l6.9,1.8l6.5-1.4l5.9,3.8l5,9.3h3.6v3.6l3.6-0.1l4.8-5.3l3.9,1.9l0.5,3.3l4.7-0.2   l6.6-3.9l5.6-7.8l-0.2-0.1l0.2,0.1l4.1,2.4l-1.3,8.4l-6.8,4.2l-0.7,6.1l8.5-1.2l8.2-6.3l-2.7-3.7l3.3-6.9l4.1,1.7l6-5l10.2-0.7   l3.9,0.8l-0.5,3.5l4.4,6.5l-2.9,7.4l9.3,8.8l4.1,5.4l-1.2,3.7l-9.8,9.7l-0.2,0.1v0.2l0.6,3.6l3.5,3.2l6.7,2.8l-0.8,3.7l2.6,6.6   l8.7,6.1l-3.3,6.1l1.4,3.2l-2.4,4.3L289.1,338.6z"></path>
	<path class="st4" d="M535,270.2l-4.4,0.9l-1.4,1.4l-5.6-2.5l-1.1,2.8l1.2,3l3.2,2.2l-0.3,4.3l-2.2-0.8l-9.1,2.7l-0.6,2l-4,0.9   l-0.6,2.2l-0.3,2.5l-4.1,0.2l-1.8,4.9l2.2,1.6l-1.8,1.8l-3-1L499,303l1.1,1.9l7.2,4l-0.1,3.4l-0.7,0.2h-1.7l-3,3.5l-3.7-1.7l-0.1-2   l-6.8-0.6l-0.4-4.2l-1.8,1.6l-1.7-1l-6.3,2.8l-2.5-3.1l-4.2-0.5l0.1,2.7l-4.4-2.5h-1.9l-1.8,1.6l-0.1-2.2l-5,3.2l-5.6-3.6l-5-10.3   l-1.5-6.5l-6.5-5.5l-2-0.2l-0.1,2.1l-4.6-0.9l-1.1-4.1l-1.6-1.2l-0.8,0.7l-4.8,4l-1.3-1.6l-5,11.5l-1.9-3.7l0.4-2.2l-1.7-1.1   l-0.9-3.1l-3.7-2.9l-3.5,3.1l-2.2,6.5l-2.7,3.5l-4.6-1.2l-3.7,2.4l-2.4-3.7l1.3-4.1l-2.8-4.3l-0.7-4h0.1l2.4-1.4L393,276l2.2-0.9   l0.1-2.5l1.7-1.4l-1.3-1.7l5.5-6.8l0.5-2.5l4.5,1.4l-1.4-10l1.3-1.8l-0.9-4l-3.2-4l6.7-6.2L407,231l0.4-2.9l-2.7-6.1   c-1.7-1.2-3.5-2.3-5.3-3.5l-0.8-2.8h-0.1l2.5-4.3l6.3-0.7l1.2-1.7l-1.2-3.9l1.6-1.3l6.1-2.1l3.4-2.7h3v0.1l4.1,4.5l4.6,0.1l2.1-1.2   l3.1,2.7l4.3-4.3l4.8,9.7l5.6,2.2l1.2,1.7l-0.4,4l-2.7,3.3v2.2l3.7,2.3l5.8-1.1l1.5,1.6l4.1-2.8l0.2-2.2l1.7-1.4l1.5,1.3l1.7-1.2   l1.8,1.2l1.2-1.7l4.1,5.5l4.3-15.1l4.2,1.1l3.9-0.9l3.5,2.3l3,5.6h2.2v2.2l2.2-0.1l2.9-3.2l2.4,1.2l0.3,2l2.8-0.1l4-2.4l3.4-4.7   l-0.1-0.1l0.1,0.1l2.5,1.4l-0.8,5l-4.1,2.5l-0.4,3.7l5.1-0.7l5-3.8l-1.7-2.2l2-4.2l2.5,1l3.6-3l6.1-0.4l2.4,0.5l-0.3,2.1l2.7,3.9   l-1.7,4.5l5.6,5.3l2.5,3.2l-0.7,2.2l-5.9,5.8l-0.1,0.1v0.1l0.4,2.2l2.1,1.9l4,1.7l-0.5,2.2l1.6,4l5.3,3.7l-2,3.7l0.9,1.9l-1.4,2.6   L535,270.2z"></path>
</g>
<path class="st5" d="M549.7,342.6l-0.1-0.2 M546.8,290.1l0.1-0.2 M320.3,353.7l0.1,2l-1.7-1.2L320.3,353.7z M341.1,79.2l-1,0.4v0.1   M298.3,119.4l-4-1.7l-5.2,3.5l-2-0.7l-3.4-6.9 M539.3,240.1l0.1-0.2 M516.9,206.1V206 M491.7,160.4L491.7,160.4z"></path>
<g>
	<path class="st1" d="M461.7,346.8l2.8-4.4l4.1-1.2l-0.7-2l3.1-3.5l2.3,0.7l1.4-7.7l6.2-6.6l-4.7-4.7l-0.1-4l-1.9-3.3 M487.7,304.8   l-1.7,2.6l-2.9,0.9l-1.5-1.6l0.9-2.3l1.9-1.6L487.7,304.8z M391.1,279.7l-4.9-0.1l-3.9,1.9l-4.9-4.4l-5.8,0.5l-0.5,3.6l-1,3.9   l-3.3,2.3l0.4,2.5l-4.4,2.5l-3.3,4.7l-2.5,2.3l1.9,6.7l-5.5,1.4v2.2l1.7,0.9l-3.2,4l0.9,2l-2-0.2l-2.5,3.4l-2,1l-6.3-0.7l-3.6,2   l-6.1-0.5l-0.9,1.8l-2.8-0.4v0.1l-0.2,2l-1.8,0.9l-0.5-2.2l-6.8,2l0.4,4.6l-3.1,8.1l1.1,2l4.8,0.2l0.1,0.1l1.7,4.2l-1,2h2l0.4,5.3   l-1.9,1l0.6,2.3l-5.9,6.7l0.3,2.2l-2.4,0.6l-1.2,2l-0.9,6.3 M330.2,180.8l-4.9,4.4l-1.6-1.7l-7.1,0.1l-4.1,0.6l-2.7,3.4l-8.9,0.6   l1.6,4.1l3.1,3l3.5,13.1l-0.2,5.4l1.8,1.5l-6.6,3.3l-1.7-1.3l-4.7,0.2l0.9-2.2l-6.3,2.5 M353.9,135.3l1.5,2.8l-0.3,1.3l-1.5,1.5   l1.3,1.6l0.2,4.1l-4.5,7.7l-2.3,0.7l-0.4,2.5v0.1l-5.6,3.2l-2-0.2l0.4,2.4l-4.4-1.8l-0.6,1.7l-1.2,6.7l-4.1,11.2 M353.9,135.3   L353.9,135.3l-0.8-5.5l5.5-3.8l-0.4-3.3l0.1-3.3l-3.4-3.1l-0.1-2.4l1.7-1.9l4.3-0.7l3.9-2.3l2.1,1.2l4.4-1l-0.2-2l4.4-5    M375.2,102.2l-1.2-4.3l1.7-1.8h2.7l2.9-6.9 M353.9,135.3l-2.3-0.6l-2.3-2.5l-2,0.7l-5.3-3.6l-1.2-6.1l-2-1.1l-8,4.2l-2.2-0.1V124   l-2.4-1.1l-1.4-4.4l-2-0.2l-0.4,2h-6.6l-4.9,2.3l-1.8-1.2l-1.7,1.2l-2.4-2.7l-6.3-0.6 M298.5,119.5l-0.1,8.8l-1.1,1.7l1.3,12.6   l-4,1.7l-2.5,6.2l-0.4,1.5l-4.9-2.5l-6.5,2.8l-1.2,2l-9.5,0.3l-3.8,2.5l-0.3,4.4l-11.2,3.3 M381.3,89.2l2.9-1.8l-2.5-6.1l1-5.8   l-1-6.4l2.2-3.3l-2.5-6.2l-9.1-7.8 M535.7,270.1l-4.4,0.9l-1.5,1.5l-5.7-2.5l-1.1,2.8l1.2,3l3.2,2.3l-0.3,4.3l-2.3-0.8l-9.2,2.8   l-0.7,2l-4,0.9l-0.7,2.3l-0.3,2.5l-4.1,0.2l-1.8,4.9l2.2,1.6l-1.8,1.8l-3.1-1l-2.3,3.7l1.1,2l7.3,4.1l-0.1,3.4l-0.7,0.2H505   l-3.1,3.6l-3.8-1.7l-0.1-2l-6.8-0.6l-0.4-4.2l-1.8,1.6l-1.7-1l-6.3,2.8l-2.5-3.1l-4.2-0.5l0.1,2.7 M474.3,310.2l-4.4-2.5h-2   l-1.8,1.6L466,307l-5.1,3.2l-5.7-3.6l-5.1-10.4l-1.5-6.5l-6.5-5.6l-2-0.2L440,286l-4.7-0.9l-1.1-4.1l-1.6-1.2l-0.8,0.7l-4.9,4.1   l-1.3-1.6l-5,11.6l-1.9-3.8l0.4-2.2l-1.7-1.1l-0.9-3.1l-3.8-2.9l-3.5,3.1l-2.2,6.5l-2.8,3.6l-4.7-1.2l-3.7,2.4l-2.4-3.7l1.3-4.1   l-2.8-4.4l-0.7-4 M398.2,215.1l0.8,2.8c1.7,1.2,3.6,2.4,5.3,3.6l2.7,6.1l-0.4,2.9l1.6,4.9l-6.8,6.2l3.3,4l0.9,4l-1.3,1.8l1.5,10.1   l-4.5-1.5l-0.5,2.5l-5.5,6.8l1.3,1.7l-1.7,1.4l-0.1,2.5l-2.3,0.9l1.1,2.4l-2.4,1.4h-0.1 M421.3,198.3L421.3,198.3l-3-0.1l-3.4,2.8   l-6.2,2.1l-1.6,1.3l1.2,3.9l-1.2,1.7l-6.4,0.7l-2.5,4.3h0.1 M330.2,180.8l3.9,2.3l0.2,2.3l2.2-0.1l0.9,4.4l2,1.1l7.3-0.4l-1.1-2.1   l3.9,2.2l0.1,2.3l6.7,9.5l-0.6,4.2l3.4,3.1h2.1l1.9,4l1.8,0.9l-1.1,2l1.9,0.8l4.2-0.7l1.2,1.7l2.1-2.1l8.3-0.7l1.4-1.8l9.6,2l2-0.6   l3.6,0.1 M515.2,212.7l-3.4,4.7l-4,2.4l-2.8,0.1l-0.3-2l-2.4-1.2l-2.9,3.2l-2.2,0.1v-2.2H495l-3.1-5.7l-3.6-2.3l-3.9,0.9l-4.2-1.1   l-4.3,15.2l-4.1-5.5l-1.2,1.7l-1.8-1.2l-1.7,1.2l-1.5-1.3l-1.7,1.4l-0.2,2.2l-4.1,2.8l-1.5-1.6l-5.8,1.1l-3.7-2.3v-2.2l2.7-3.3   l0.4-4l-1.2-1.7l-5.7-2.2l-4.9-9.8l-4.4,4.4l-3.1-2.7l-2.1,1.2l-4.7-0.1l-4.1-4.6 M417.9,137l4.9,5.5l0.3,4.1l-3.3,3.6l0.8,2.2   l-1.2,1.7l-3.9,2.4l2.2,2.1l1.7,5l-2.1,0.5l-1,1.7l1.4,4.7l-1.2,4.1l2,1.6l2.3,5.4l0.1,4.3l1.7,1.5l-0.2,4.3l-0.9,6.5 M491.8,160.4   l-3.5,1.4v-2.1l-2.2-1.1l-6.7-1.5l-1.7-3.5l2-1.7l-0.8-2.3l-1.2-1.7l-2.2-0.1l0.3-2.1L474,145l-0.4-2l-2.5-0.5v0.1l-2.8-0.4   l-3.4,2.8l-4.5,0.7l-1.6,1.4l-2.1-0.9l-9.2,1.2l-3.6-8l-2.6-3l-1.5,1.6l-1.8-6l-3.2-4.1l-2.7-1.1 M432,126.7l-11.2,2.3l-0.1,4.2   l-2.8,3.9 M417.9,137l-8.1,2l-6.6-0.5l1.8-1.1l0.4-2l-3-3.1l-0.5-2.3l-2.8-0.4l-2,1.2l-1.1-1.9l-1.4,2l-5,0.5h-0.1l-2-7.7l-2.3,0.5   l-1.6-1.6l-0.9-4.1l-4.4-3.9l-0.4-7.8l-2.7-4.8 M433.9,106l-0.4,1.5l-1.8,1.7l2.5,6l1.8,1.2l-2.2,3.6l-2.1,0.6l0.3,6.2 M433.9,106   l-6.8-4.4l-2.8-3l0.4-2.1l-1.2-1.8l-2-0.5l-5.9,2.2l-1.8-1.2l-1.5,1.5l-5-0.7l-7.9-4.6l-1.7,1.2l-6.7-1.7l-4.6,1.4l-4.1-0.8   l-1.2-2.4 M454.8,56.2l0.6,4.1l-1,2.5l1,2.3l-3.6,5.2l-2,0.2l0.2,10.4l-0.7,2l-3.9-1.3l-5.7,2.9l-0.9,1.9l2.3,5.9l-3.9,1.6l1.2,1.7   l-0.7,2l1.8,0.9l-5.5,7.4 M539.5,165.6L539.5,165.6l2.8-2.9l0.1-0.1l2.8-0.4l-1.6-3.6l-2,0.1l-0.3-6.5l-5.5-3.6l-0.7,0.5l-6.1-4.9   l-3.7,1.7l-3.6-2.7l-4.1,1.2l-5.1-3.1l-5.9,4.1l0.1,1.1l-1.6,2.3l-2.1-0.3l-1.5,1.7l-0.2,6.1L499,157l-1.6-1.3l-4.7,2.8l-0.9,1.8"></path>
</g>
<path class="st5" d="M429.1,358.7l-0.1-0.1 M493.8,344.8l-1.6,2.8l-2.3,0.8l-3.4-3.2l0.4-2.5h2.9l1.5,3.1L493.8,344.8z"></path>
<path class="st6" d="M784.6,80.9c0-0.1-0.1-0.2-0.1-0.3c-29.4-54.5-97.4-74.9-152-45.5c-12,6.4-22.3,14.7-30.8,24.3L477,245.9  l-0.4,0.6l225.1-1.6c12.7-1.8,25.3-5.9,37.2-12.3C793.4,203.2,813.8,135.4,784.6,80.9"></path>
<circle class="st7" cx="687.9" cy="132.4" r="89.7"></circle>
<path class="st8" d="M715,147.6v2c-0.1,3-0.6,5.9-1,8.9c-0.2,1.7-1.4,3.2-2.5,4.4c-0.8,0.9-2.4,0.9-3.5,1.5  c-0.3,0.1-0.7,0.3-1.1,0.3c-2.3,0.6-2.8,2.3-2.4,4c0.9,3,0.3,5.7-0.2,8.4c-0.8,3.4-0.7,6.9-0.1,10.4c0.3,2.4,0.6,4.8,0.9,7.2  c0.1,0.6-0.1,0.7-0.7,0.8c-3.2,0.6-6.4,1-9.6,1.7c-2.5,0.5-1.9-0.1-1.6,2.5c0.6,4.1,1.3,8.3,1.8,12.4c0,0.1,0,0.2,0,0.3"></path>
<path class="st8" d="M634.4,128l1.1-2.3c1.3-1.6,2.4-3.3,3.5-5c0.5-0.7,0.6-1.3,0.5-2c-0.3-0.9-0.1-1.9-0.3-2.8  c-0.1-0.7,0.7-0.9,1.1-1.1c1.1-0.8,1.3-1.3,0.6-2.5c-0.3-0.6-0.3-1.4,0.3-1.7c2-0.9,1.6-2.7,1.6-4.3c0-0.3-0.3-0.7-0.6-0.8  c-3-2.2-3.3-5.4-3.1-8.8c0.1-1.5,0.3-3.1,0.6-4.6c0.1-0.7-0.2-0.8-0.8-0.8c-1.8,0.1-3.5,0.3-5.4,0.8c-0.9,0.2-1.5,0.1-1.6-0.9  c0-0.3-0.1-0.7-0.5-0.9c-0.2-0.1-0.7,0-0.7-0.3c0-0.2,0.3-0.3,0.6-0.5c1.7-1.3,3.8-2.2,5.2-3.8c0.3-0.3,0.7-0.3,1-0.1  c1.1,0.7,2.3,1.3,3.4,1.9c0.5,0.2,0.9,0.3,1.4-0.1c0.6-0.6,1.3-1,1.9-1.6c0.5-0.3,0.3-0.8,0.2-1.1c-0.2-0.7,0-0.9,0.7-0.8  c0.9,0.1,1.9,0.2,2.8,0.3c0.5,0,1,0.1,1.3-0.5c0.3-0.9,0.8-0.5,1.3-0.1c1.7,1.3,3.4,2.4,5.1,3.6c0.7,0.6,1.1,0.3,1.3-0.5  c0.3-2.4,1.6-4.2,3.6-5.5c1-0.7,1.8-1.6,2.6-2.4c1.6-1.6,2.4-3.4,2.6-5.6c0.1-0.9,0.3-1.3,1.3-1.1c0.5,0,1,0,0.7-0.7  c-0.1-0.5,0.1-0.8,0.6-0.8c0.8-0.1,1-0.6,1.3-1.1c0.1-0.3,0.2-0.6,0.3-0.9c0.2-1.5,1.1-2.2,2.6-2.2c1,0,1.4-0.6,1-1.7  c-0.8-2.4-0.8-2.5,1.7-2.4c1.3,0,2.4-0.3,3.4-1c0.9-0.7,1.9-1.1,2.8-1.8c0.6-0.3,0.9-0.3,1.4,0.1c0.5,0.6,1,1,1.5,1.6  c0.3,0.6,0.8,0.6,1.1-0.1c0.5-1,1-1.9,1.6-3c0.1-0.2,0.1-0.5,0.3-0.5c0.3,0,0.3,0.3,0.5,0.6c0.5,1,0.8,2.2,1.3,3.2  c0.3,0.9,0,2.2,0.9,2.3"></path>
<path class="st8" d="M751.8,161.7l-0.8,1.8c-1.4,4.9-2.8,9.7-4.2,14.6c-0.2,0.6-0.1,1.1-0.1,1.7c-0.1,3.6,0.2,7.3,0.2,10.9  c0,0.9-0.2,1.1-1.3,0.9c-1-0.2-2.2-0.2-3.3-0.5c-3.2-0.6-6.1-1.9-9.2-2.8c-4.2-1.4-8.1-3.3-12.2-4.9c-0.3-0.1-0.5-0.3-0.7-0.7  c-1-1.5-2.2-2.8-3.3-4.2c-0.3-0.5-0.6-0.6-1.1-0.5c-1.7,0.3-3.4,0.7-5,0.9c-0.8,0.1-1.1,0.5-1,1.3c0.3,3.4,0.6,6.8,0.8,10.2  c0.1,1.6,0.1,3.2,0.2,4.8c0,0.7-0.2,0.9-0.9,0.8c-1.3-0.2-2.6-0.5-3.9-0.6h-1.9"></path>
<path class="st8" d="M694.9,127.2c0-0.1,0-0.2,0-0.5c4.4-0.1,8.9-0.2,13.3-0.5c3.5-0.2,7.2-0.2,10.7-0.5c1.9-0.1,4-0.1,5.9-0.2  c0.7,0,1.1,0.1,1.5,0.8c0.1,0.3,0.5,0.7,0.6,1c0.6,1.3,1.5,2.2,2.8,2.5c1,0.2,1.1,0.9,1,1.8c-0.3,1.7-0.3,1.8,1.4,2.2  c0.8,0.2,1,0.5,1,1.3c-0.1,1.3,0,2.4,0,3.6c0,0.5,0.1,0.8,0.7,0.8c4,0.3,8.1,0.7,12.1,0.7c2.3,0,4.6,0,6.7,0.2  c1.9,0.1,3.6,1.1,5.6,1.7c0.3,0.1,0.2,0.5,0.2,0.7c-1.1,5-2.5,9.9-4.3,14.6c-0.6,1.5-1.5,2.7-2.3,4.1c-0.3,0.6-0.7,0.3-1,0.2  c-2-1-4-2.2-6.1-3.1c-1.1-0.5-2.4-0.8-3.6-0.7c-1.1,0-2.3,0-3.3,0c-0.6,0-1-0.1-1-0.8c0-0.6-0.3-0.8-0.8-1c-5.7-2.3-11.3-5.1-17-7.3  c-8-3-15.5-6.8-23.2-10.2c-0.6-0.2-1.1-0.5-1.8-0.7v-0.1"></path>
<path class="st8" d="M635.3,127.2c2.3-0.1,4.7,0.3,6.9,0.6c1.7,0.1,3.4,0.5,5.2,0.6c2.5,0.2,4.4,1.4,5.7,3.4  c0.6,0.9,1.3,1.4,2.3,1.7s1.9,0.7,2.8,1.1c1.5,0.7,3,0.2,4.4,0.3c0.1-0.3-0.1-0.6-0.3-0.7c-1.7-1-1.9-2.7-2.3-4.4  c-0.1-1-0.2-2-0.3-3c-0.1-0.5,0.1-0.7,0.5-0.8c0.7,0,1.4-0.3,2.3,0.2c0.9,0.7,2.8-0.3,3-1.5c0-0.5,0.1-0.6,0.7-0.6  c0.8,0.1,1.6,0.1,2.4,0.6c1.1,0.6,1.8,0.1,2-1.1c0.1-0.5,0.1-0.8,0.1-1.3 M668.6,149.3c-0.7-0.3-1.5-0.3-2.3-0.6  c-0.7-0.2-0.9,0.5-1,0.8c-0.5,1-1.1,1.6-2.3,1.6c-0.5,0-0.8,0.2-1.1,0.6c-0.2,0.3-0.6,0.5-0.8,0.2c-0.5-0.2-0.3-0.6-0.1-0.8  c0.5-0.9-0.1-1.1-0.8-1.5c-2.6-1-5.1-1.9-7.7-3.1c-0.7-0.2-1.1-0.2-1.7,0.2c-0.3,0.3-0.7,0.6-1.1,0.9c-0.9,0.8-1.7,1.4-3.1,1.4  c-1.6-0.1-2.7,1.1-4,1.9c-3.5,2.3-6.9,4.7-10.5,7.1c-0.7,0.5-1.1,0.3-1.6-0.1c-1.5-1.1-3-2.2-4.3-3.3c-0.5-0.3-0.8-0.5-1.3-0.3  c-0.8,0.3-1.4,0-1.8-0.7c-1.3-1.5-2.6-3-3.8-4.6c-1-1.4-0.3-3.2,1.3-3.5c1.7-0.5,3.4-0.7,5-1.5c0.9-0.3,1.8-0.7,2.8-0.5  c0.7,0.2,1.1-0.1,0.9-1c-0.2-0.9-0.1-1.8-0.2-2.7c0-0.2,0.1-0.5,0.2-0.6c0.5-0.3,0.8-0.9,1.3-1.1c1.8-1.3,2.7-2.8,3-5  c0.1-1.7,0.5-3.4,0.6-5.2c0.1-0.7,0.5-0.8,1-0.8"></path>
<path class="st8" d="M711.9,88.1c0,6.9,1.4,15.5,1.4,22.4c0,0.8,0.1,1.4,0.9,1.7c2,0.8,2.6,2.8,3.8,4.4c0.2,0.3,0.6,0.8,0.7,1.3  c0.2,0.6,0.6,0.8,1.1,0.7c0.6-0.1,0.9,0.1,0.9,0.8c0,0.5,0.3,0.7,0.6,0.9c1,1,2,2,3.1,3.1l1.7,2.8"></path>
<path class="st8" d="M670.1,87.6c0.2,0.2,0.3,0.5,0.7,0.6c0.6,0.3,0.8,0.7,0.3,1.3c-0.3,0.3-0.3,0.7,0.1,0.9  c1.4,0.6,1.5,1.8,1.7,3.1c0.1,0.8,0.5,1.3,1.3,1.5c1.8,0.7,3.6,1.4,5.4,2.2c0.6,0.2,0.9,0.2,1.3-0.3c0.1-0.2,0.3-0.6,0.8-0.5  c0.3,0.2,0.5,0.6,0.3,0.9c-0.2,0.8,0.1,0.9,0.8,0.9c1.3,0,2.4,0,3.6,0.3c0.8,0.2,1.5-0.3,2-0.8c0.9-0.7,1.5-0.7,2.3,0.2  c0.8,0.9,1.8,1.7,2.7,2.6"></path>
<path class="st8" d="M662.9,115l7.9-2.9l3.5-1.8c0,0,3.4,0.5,3.8-0.2c0.3-0.7,3-1,3-1s3.6,0.5,3.5,0s1.7-0.3,1.7-0.3l2.9-0.5  l2.9,0.3"></path>
<path class="st8" d="M681.8,125.9c0,0,4.8,0.8,7-1.6s2.1-2.9,4-3.3"></path>
<path class="st9" d="M682.6,151c1.6-2.8,3.1-5.7,4.7-8.5c2.8-4.7,4.6-9.5,3.8-15c-0.2-1.6-0.1-3.2-0.1-4.8c0-0.2,0-0.5,0-0.7  c0-4,0-7.9,0.1-11.8c0-0.2,0-0.5,0-0.7c0.1-0.1,0.1-0.3,0.1-0.5c0.1-3,0.6-5.8,2-8.5c2.5-3,5.1-6,7.6-9c2.6-3.1,5.9-4.9,9.9-5.5  c2.5-0.3,2.5-0.3,3,2.2c0.1,0.6,0.3,1.1-0.3,1.5c-3.1,0-5.9,0.8-8.2,3c-3,2.7-5.2,6-7.9,8.9c-1.3,1.4-1.8,3-2,4.9  c-0.2,2-0.3,4-0.5,6c-0.2,4.7-0.1,9.2,0.1,13.9c0,0.1,0,0.3,0,0.5s0,0.2,0,0.5c0.1,3.6,0.2,7.3-1.1,10.8v0.1  c-0.1,0.1-0.1,0.3-0.2,0.5c-2.6,5.4-5.8,10.5-8.4,15.8c-1.5,3-2.8,6.1-4.9,8.9c-1.9,2.7-3.4,5.6-4.7,8.7c-1.9,4.9-3,9.8-1.9,15.1  c1,5.6,2.4,11.2,4.9,16.3c0.8,1.7,2,3.3,3,5c0.3,0.6,0.9,1,1.6,1.3c2.8,1.4,5.9,2.5,9,3c0.9,0.1,1.8,0.1,2.7,0  c0.5,0.1,0.5,0.5,0.6,0.8s0.1,0.8,0.1,1.1c0.1,1.9,0.1,1.9-1.9,1.9c-3.8,0-7.1-1.5-10.5-2.6c-3.9-1.3-5.7-4.3-7.5-7.6  c-3.1-5.6-4.7-11.7-5.8-18c-0.2-1.3-0.5-2.5-0.7-3.8c-0.3-1.6-1.6-2.6-2.5-4c-1.3-1.8-2.6-3.5-3.5-5.5c-0.8-1.7-0.9-3.6-1-5.5  c-0.3-5.4,0.1-10.6,2.8-15.4c1-1.7,2.4-3.2,3.5-4.9c1.3-1,2.5-1.9,3.6-3c0.3-0.3,0.7-0.7,0.8-1.3c0.3-1.7,0.9-3.4,1.5-5  c1-3,2.4-5.8,4.9-7.9c0.6-0.5,0.9-1.1,1-1.8c0.3-1.6,0.1-3.2,0.2-4.7c0.1-1.3-0.5-2.3-1-3.2c-0.2-0.3-0.5-0.8-0.9-0.7  c-0.9,0.1-1.8-0.2-2.7-0.1c-1.7,0.2-3.4,0.5-5.2,0.7c-0.2,0-0.5,0-0.7,0c-1.1-0.1-2.4,0-3.5-0.2c-1.9-0.3-3.3-1.5-4.2-3.2  c-0.7-1.4-1.3-2.7-1.8-4.1c-0.5-1-1-1.9-1.9-2.7c-1.5-1.3-1.9-3.2-2.2-5c-0.2-2.6,0.3-5.1,1.4-7.5c2.8-6.4,6.8-11.8,11.4-17.2  c3.1-3.6,6.6-6.6,10.7-9c1.4-0.8,2.8-1.4,4.2-2c3.3-1.6,5.6-4,6.4-7.6c0.1-0.3,0-0.7,0-0.9c1.1-0.2,2.3,0.2,3.4,0.2  c0.7,0,0.5,0.5,0.5,0.9c-0.3,2.5-1.4,4.8-3.1,6.6c-1.8,2-3.9,3.6-6.5,4.7c-5.4,2.2-9.7,5.6-13.2,10c-0.6,0.8-1.4,1.4-1.7,2.3  c-1.4,1.3-2.3,2.8-3.4,4.3c-2.4,3.4-4.7,7.1-5.9,11c-0.8,2.6-1,5.2,1.4,7.3c0.9,0.8,1.4,1.9,1.8,3c0.2,0.5,0.5,1,0.7,1.5  c0.1,0.1,0.1,0.3,0.2,0.5c0.3,2.3,1.5,3.4,3.5,3.6c0.6,0,1.3,0,1.8-0.1c2.8-0.3,5.7-0.7,8.5-0.6c0.9,0,1.8,0.2,2.5,0.8  c1.9,1.5,2.7,3.6,3.3,5.8c0,0.1,0,0.3,0,0.5c0,1,0,2.2,0,3.2c0,2.8-0.7,5.4-3.1,7.2c-0.2,0.1-0.3,0.3-0.5,0.6  c-1.9,2.3-2.7,5.1-3.5,8l-0.2,1c-0.3,2.4-1.8,3.8-3.6,5c-3.5,2.5-5.7,5.9-6.8,10c-1.1,3.9-0.9,7.9-0.3,11.8c0.3,2.4,1.9,4.1,3.4,6  c0.1-0.3,0.1-0.5,0.1-0.6c1-5.4,3.1-10.2,6-14.7c1.4-2,2.6-4.1,3.8-6.3c0.8-1.6,1.6-3.2,2.5-4.8L682.6,151z"></path>
<g>
	<g>
		<line class="st10" x1="272" y1="295" x2="448.4" y2="258.9"></line>
		<g>
			<path class="st6" d="M449.5,266.4c4.1-0.8,6.7-4.8,5.9-8.9s-4.8-6.7-8.9-5.9c-4.1,0.8-6.7,4.8-5.9,8.9     C441.5,264.6,445.5,267.2,449.5,266.4z"></path>
		</g>
	</g>
</g>
<g>
	<path class="st6" d="M59.2,441.6l-2.1-6.7h-1.4v6.7h-2.6v-16.3h4.1c3,0,4.2,1.4,4.2,4.8c0,2-0.4,3.5-1.9,4.3l2.4,7.2H59.2z    M57.2,427.6h-1.6v5h1.6c1.4,0,1.6-1.1,1.6-2.5S58.6,427.6,57.2,427.6z"></path>
	<path class="st6" d="M64,441.6v-16.3h6.8v2.3h-4.3v4.6h3.7v2.3h-3.7v4.7h4.3v2.3H64z M68.2,424.2h-1.7l1.6-3.2h2L68.2,424.2z"></path>
	<path class="st6" d="M77,441.8c-1.5,0-2.5-0.6-3.2-1.4c-1.1-1.3-1.2-3.1-1.2-6.9c0-3.9,0.1-5.6,1.2-6.9c0.7-0.8,1.6-1.4,3.2-1.4   c1.3,0,2.2,0.4,2.9,1.1c0.8,0.8,1.2,2,1.3,3.4h-2.6c0-0.9-0.2-2.2-1.6-2.2c-0.6,0-1,0.3-1.2,0.6c-0.5,0.8-0.6,2.4-0.6,5.4   c0,3,0.1,4.6,0.6,5.4c0.2,0.4,0.6,0.6,1.2,0.6c1.1,0,1.6-1,1.6-2.1v-2.5H77v-2.1h4.2v4.5C81.1,440.2,79.4,441.8,77,441.8z"></path>
	<path class="st6" d="M83.4,441.6v-16.3H86v16.3H83.4z"></path>
	<path class="st6" d="M95.8,440.4c-0.7,0.8-1.6,1.4-3.2,1.4c-1.5,0-2.5-0.6-3.2-1.4c-1.1-1.3-1.2-3.1-1.2-6.9c0-3.9,0.1-5.6,1.2-6.9   c0.7-0.8,1.6-1.4,3.2-1.4c1.5,0,2.5,0.6,3.2,1.4c1.1,1.3,1.2,3.1,1.2,6.9C97,437.3,96.9,439.1,95.8,440.4z M93.9,428   c-0.2-0.4-0.6-0.6-1.2-0.6s-1,0.3-1.2,0.6c-0.5,0.8-0.6,2.4-0.6,5.4c0,3,0.1,4.6,0.6,5.4c0.2,0.4,0.6,0.6,1.2,0.6s1-0.3,1.2-0.6   c0.5-0.8,0.5-2.4,0.5-5.4C94.4,430.5,94.4,428.8,93.9,428z"></path>
	<path class="st6" d="M105.7,441.6l-3.8-9.7v9.7h-2.6v-16.3h2.3l3.8,9.7v-9.7h2.6v16.3H105.7z"></path>
	<path class="st6" d="M121.3,441.6l-0.7-3.2h-3.8l-0.6,3.2h-2.7l4-16.3h2.5l4,16.3H121.3z M118.8,429.2l-1.4,6.8h2.8L118.8,429.2z"></path>
	<path class="st6" d="M132.5,440.6c-0.8,0.8-1.8,1.2-3,1.2s-2.3-0.4-3-1.2c-0.7-0.7-1.1-1.8-1.1-3v-12.3h2.6v12.4   c0,1.2,0.7,1.7,1.6,1.7s1.6-0.6,1.6-1.7v-12.4h2.6v12.3C133.7,438.8,133.2,439.8,132.5,440.6z"></path>
	<path class="st6" d="M141.2,441.6h-2.7l-3.6-16.3h2.8l2.1,12.3l2.1-12.3h2.8L141.2,441.6z"></path>
	<path class="st6" d="M146.2,441.6v-16.3h6.8v2.3h-4.3v4.6h3.7v2.3h-3.7v4.7h4.3v2.3H146.2z"></path>
	<path class="st6" d="M161.4,441.6l-2.1-6.7h-1.4v6.7h-2.6v-16.3h4.1c3,0,4.2,1.4,4.2,4.8c0,2-0.4,3.5-1.9,4.3l2.4,7.2H161.4z    M159.4,427.6h-1.6v5h1.6c1.4,0,1.6-1.1,1.6-2.5S160.8,427.6,159.4,427.6z"></path>
	<path class="st6" d="M170.1,441.8c-1.5,0-2.5-0.6-3.2-1.4c-1.1-1.3-1.2-3.1-1.2-6.9c0-3.9,0.1-5.6,1.2-6.9c0.7-0.8,1.6-1.4,3.2-1.4   c1.3,0,2.2,0.4,2.9,1.1c0.8,0.8,1.2,2,1.3,3.4h-2.6c0-0.9-0.2-2.2-1.6-2.2c-0.6,0-1,0.3-1.2,0.6c-0.5,0.8-0.6,2.4-0.6,5.4   c0,3,0.1,4.6,0.6,5.4c0.2,0.4,0.6,0.6,1.2,0.6c1.1,0,1.6-1,1.6-2.1v-2.5h-1.6v-2.1h4.2v4.5C174.3,440.2,172.6,441.8,170.1,441.8z"></path>
	<path class="st6" d="M183,441.6l-3.8-9.7v9.7h-2.6v-16.3h2.3l3.8,9.7v-9.7h2.6v16.3H183z"></path>
	<path class="st6" d="M188,441.6v-16.3h6.8v2.3h-4.3v4.6h3.7v2.3h-3.7v4.7h4.3v2.3H188z"></path>
	<path class="st6" d="M196.8,434.6v-2.3h4.6v2.3H196.8z"></path>
	<path class="st6" d="M209.9,441.6l-2.1-6.7h-1.4v6.7h-2.6v-16.3h4.1c3,0,4.2,1.4,4.2,4.8c0,2-0.4,3.5-1.9,4.3l2.4,7.2H209.9z    M208,427.6h-1.6v5h1.6c1.4,0,1.6-1.1,1.6-2.5S209.3,427.6,208,427.6z"></path>
	<path class="st6" d="M220.5,441.6v-7.1h-3.2v7.1h-2.6v-16.3h2.6v6.9h3.2v-6.9h2.6v16.3H220.5z"></path>
	<path class="st6" d="M232.8,440.4c-0.7,0.8-1.6,1.4-3.2,1.4c-1.5,0-2.5-0.6-3.2-1.4c-1.1-1.3-1.2-3.1-1.2-6.9   c0-3.9,0.1-5.6,1.2-6.9c0.7-0.8,1.6-1.4,3.2-1.4c1.5,0,2.5,0.6,3.2,1.4c1.1,1.3,1.2,3.1,1.2,6.9C234,437.3,233.9,439.1,232.8,440.4   z M231.1,424.2l-1.4-1.9l-1.3,1.9h-1.9l2.3-3.2h1.9l2.3,3.2H231.1z M230.9,428c-0.2-0.4-0.6-0.6-1.2-0.6s-1,0.3-1.2,0.6   c-0.5,0.8-0.6,2.4-0.6,5.4c0,3,0.1,4.6,0.6,5.4c0.2,0.4,0.6,0.6,1.2,0.6s1-0.3,1.2-0.6c0.5-0.8,0.5-2.4,0.5-5.4   C231.5,430.5,231.4,428.8,230.9,428z"></path>
	<path class="st6" d="M242.7,441.6l-3.8-9.7v9.7h-2.6v-16.3h2.3l3.8,9.7v-9.7h2.6v16.3H242.7z"></path>
	<path class="st6" d="M247.7,441.6v-16.3h6.8v2.3h-4.3v4.6h3.7v2.3h-3.7v4.7h4.3v2.3H247.7z"></path>
	<path class="st6" d="M256.5,434.6v-2.3h4.6v2.3H256.5z"></path>
	<path class="st6" d="M270,441.6l-0.7-3.2h-3.8l-0.6,3.2h-2.7l4-16.3h2.5l4,16.3H270z M267.5,429.2l-1.4,6.8h2.8L267.5,429.2z"></path>
	<path class="st6" d="M274.2,441.6v-16.3h2.6v14h4.3v2.3H274.2z"></path>
	<path class="st6" d="M287.1,435.2h-1.5v6.4H283v-16.3h4.1c2.9,0,4.2,1.6,4.2,5C291.3,433.7,290,435.2,287.1,435.2z M287,427.6h-1.4   v5.3h1.4c1.4,0,1.7-1,1.7-2.6S288.4,427.6,287,427.6z"></path>
	<path class="st6" d="M293.5,441.6v-16.3h6.8v2.3H296v4.6h3.7v2.3H296v4.7h4.3v2.3H293.5z"></path>
	<path class="st6" d="M309.3,440.7c-0.7,0.6-1.7,1.1-3.2,1.1c-1.4,0-2.5-0.4-3.2-1.1c-0.8-0.8-1.1-1.8-1.1-3.5h2.6   c0,0.9,0.1,1.4,0.5,1.8c0.2,0.3,0.6,0.4,1.2,0.4c0.6,0,1-0.2,1.2-0.5c0.3-0.4,0.4-0.9,0.4-1.8c0-1.7-0.3-2.2-1.5-2.7l-1.9-0.8   c-1.6-0.7-2.3-1.6-2.3-4.1c0-1.5,0.4-2.7,1.3-3.5c0.7-0.6,1.6-1,2.8-1c1.3,0,2.3,0.3,2.9,1c0.8,0.8,1.1,2,1.1,3.5h-2.6   c0-0.7,0-1.3-0.4-1.7c-0.2-0.3-0.6-0.5-1.1-0.5c-0.5,0-0.8,0.2-1.1,0.5c-0.3,0.3-0.4,0.9-0.4,1.6c0,1.3,0.2,1.7,1.3,2.2l1.9,0.8   c1.9,0.8,2.5,1.8,2.5,4.6C310.4,438.7,310.2,439.9,309.3,440.7z"></path>
</g>
<g>
	<path class="st6" d="M622.4,276.2v-10.1l-2.2,6.7h-1.4l-2.2-6.6v10h-2.6V260h2.3l3.2,8.5l3.1-8.5h2.3v16.3H622.4z"></path>
	<path class="st6" d="M627.7,276.2V260h6.8v2.3h-4.3v4.6h3.7v2.3h-3.7v4.7h4.3v2.3H627.7z M631.9,258.9h-1.7l1.6-3.2h2L631.9,258.9z   "></path>
	<path class="st6" d="M641.2,262.3v14h-2.6v-14h-2.7V260h8v2.3H641.2z"></path>
	<path class="st6" d="M651.9,276.2l-2.1-6.7h-1.4v6.7h-2.6V260h4.1c3,0,4.2,1.4,4.2,4.8c0,2-0.4,3.5-1.9,4.3l2.4,7.2H651.9z    M649.9,262.3h-1.6v5h1.6c1.4,0,1.6-1.1,1.6-2.5S651.3,262.3,649.9,262.3z"></path>
	<path class="st6" d="M663.6,275c-0.7,0.8-1.6,1.4-3.2,1.4c-1.5,0-2.5-0.6-3.2-1.4c-1.1-1.3-1.2-3.1-1.2-6.9c0-3.9,0.1-5.6,1.2-6.9   c0.7-0.8,1.6-1.4,3.2-1.4c1.5,0,2.5,0.6,3.2,1.4c1.1,1.3,1.2,3.1,1.2,6.9C664.8,272,664.7,273.7,663.6,275z M661.7,262.7   c-0.2-0.4-0.6-0.6-1.2-0.6s-1,0.3-1.2,0.6c-0.5,0.8-0.6,2.4-0.6,5.4c0,3,0.1,4.6,0.6,5.4c0.2,0.4,0.6,0.6,1.2,0.6s1-0.3,1.2-0.6   c0.5-0.8,0.5-2.4,0.5-5.4C662.3,265.1,662.2,263.5,661.7,262.7z"></path>
	<path class="st6" d="M671.2,269.8h-1.5v6.4h-2.6V260h4.1c2.9,0,4.2,1.6,4.2,5C675.4,268.3,674.2,269.8,671.2,269.8z M671.1,262.3   h-1.4v5.3h1.4c1.4,0,1.7-1,1.7-2.6S672.5,262.3,671.1,262.3z"></path>
	<path class="st6" d="M684.6,275c-0.7,0.8-1.6,1.4-3.2,1.4c-1.5,0-2.5-0.6-3.2-1.4c-1.1-1.3-1.2-3.1-1.2-6.9c0-3.9,0.1-5.6,1.2-6.9   c0.7-0.8,1.6-1.4,3.2-1.4c1.5,0,2.5,0.6,3.2,1.4c1.1,1.3,1.2,3.1,1.2,6.9C685.8,272,685.7,273.7,684.6,275z M682.7,262.7   c-0.2-0.4-0.6-0.6-1.2-0.6s-1,0.3-1.2,0.6c-0.5,0.8-0.6,2.4-0.6,5.4c0,3,0.1,4.6,0.6,5.4c0.2,0.4,0.6,0.6,1.2,0.6s1-0.3,1.2-0.6   c0.5-0.8,0.5-2.4,0.5-5.4C683.2,265.1,683.1,263.5,682.7,262.7z"></path>
	<path class="st6" d="M688.1,276.2V260h2.6v14h4.3v2.3H688.1z"></path>
	<path class="st6" d="M696.8,276.2V260h6.8v2.3h-4.3v4.6h3.7v2.3h-3.7v4.7h4.3v2.3H696.8z"></path>
	<path class="st6" d="M717.3,274.9c-0.7,0.8-1.6,1.3-3.2,1.3H710V260h4.1c1.6,0,2.5,0.6,3.2,1.3c1.1,1.2,1.2,3,1.2,6.8   S718.4,273.7,717.3,274.9z M715.3,262.9c-0.3-0.4-0.7-0.7-1.3-0.7h-1.5v11.7h1.5c0.6,0,1.1-0.3,1.3-0.7c0.5-0.8,0.5-2.4,0.5-5.2   S715.8,263.7,715.3,262.9z"></path>
	<path class="st6" d="M720.8,276.2V260h6.8v2.3h-4.3v4.6h3.7v2.3h-3.7v4.7h4.3v2.3H720.8z"></path>
	<path class="st6" d="M733.9,276.2V260h2.6v14h4.3v2.3H733.9z"></path>
	<path class="st6" d="M745.8,269.8v6.4h-2.6v-6.4l-3.2-9.9h2.8l1.6,6.4l1.6-6.4h2.8L745.8,269.8z"></path>
	<path class="st6" d="M757.2,275c-0.7,0.8-1.6,1.4-3.2,1.4c-1.5,0-2.5-0.6-3.2-1.4c-1.1-1.3-1.2-3.1-1.2-6.9c0-3.9,0.1-5.6,1.2-6.9   c0.7-0.8,1.6-1.4,3.2-1.4c1.5,0,2.5,0.6,3.2,1.4c1.1,1.3,1.2,3.1,1.2,6.9C758.4,272,758.3,273.7,757.2,275z M755.3,262.7   c-0.2-0.4-0.6-0.6-1.2-0.6s-1,0.3-1.2,0.6c-0.5,0.8-0.6,2.4-0.6,5.4c0,3,0.1,4.6,0.6,5.4c0.2,0.4,0.6,0.6,1.2,0.6s1-0.3,1.2-0.6   c0.5-0.8,0.5-2.4,0.5-5.4C755.9,265.1,755.8,263.5,755.3,262.7z"></path>
	<path class="st6" d="M767.1,276.2l-3.8-9.7v9.7h-2.6V260h2.3l3.8,9.7V260h2.6v16.3H767.1z"></path>
</g>
</svg>